<?xml version="1.0" encoding="UTF-8"?>
<svg version="1.1" xmlns="http://www.w3.org/2000/svg" width="640" height="640">
<path d="M0 0 C211.2 0 422.4 0 640 0 C640 211.2 640 422.4 640 640 C428.8 640 217.6 640 0 640 C0 428.8 0 217.6 0 0 Z " fill="#D3EAF8" transform="translate(0,0)"/>
<path d="M0 0 C1.81063037 -0.00435973 3.6212589 -0.00954702 5.43188477 -0.01548767 C10.30204789 -0.02875537 15.17213283 -0.02946998 20.04231048 -0.02692437 C24.13199037 -0.025846 28.22165499 -0.03076011 32.31133157 -0.03552979 C41.97400506 -0.04658335 51.63663967 -0.04708629 61.29931641 -0.04101562 C71.21153759 -0.03498314 81.12361657 -0.04727807 91.03581351 -0.06858569 C99.5960629 -0.08629903 108.15626743 -0.09218771 116.71653444 -0.08894795 C121.80703088 -0.08714992 126.89742594 -0.08962084 131.9879055 -0.10366249 C180.66053631 -0.22649789 180.66053631 -0.22649789 201.41333008 6.6496582 C202.38028809 6.9592749 203.34724609 7.2688916 204.34350586 7.58789062 C217.78456744 11.95674589 229.34437842 17.91453887 241.35083008 25.2746582 C241.95540039 25.63978516 242.5599707 26.00491211 243.18286133 26.38110352 C250.07292761 30.54286194 250.07292761 30.54286194 252.35083008 32.2746582 C252.35083008 32.9346582 252.35083008 33.5946582 252.35083008 34.2746582 C252.90383789 34.52086914 253.4568457 34.76708008 254.02661133 35.02075195 C266.57857606 41.79248419 276.76025496 54.16765199 285.35083008 65.2746582 C285.75978516 65.80188477 286.16874023 66.32911133 286.59008789 66.87231445 C303.35083008 88.70385855 303.35083008 88.70385855 303.35083008 97.2746582 C304.01083008 97.2746582 304.67083008 97.2746582 305.35083008 97.2746582 C306.12210577 99.27448766 306.89282657 101.27453111 307.66333008 103.2746582 C308.3072168 104.9452832 308.3072168 104.9452832 308.96411133 106.6496582 C309.42172852 107.8459082 309.8793457 109.0421582 310.35083008 110.2746582 C310.59236816 110.9044458 310.83390625 111.5342334 311.08276367 112.18310547 C328.85309248 158.96207605 327.11407513 216.18230596 307.35083008 262.2746582 C306.37118006 263.95336712 305.37436486 265.62234034 304.35083008 267.2746582 C304.02083008 268.0996582 303.69083008 268.9246582 303.35083008 269.7746582 C302.2701078 272.4764639 300.84620297 274.78237005 299.35083008 277.2746582 C298.67733847 278.93857866 298.00991418 280.60497848 297.35083008 282.2746582 C296.69083008 283.2646582 296.03083008 284.2546582 295.35083008 285.2746582 C294.69083008 285.2746582 294.03083008 285.2746582 293.35083008 285.2746582 C293.08915039 285.99911133 292.8274707 286.72356445 292.55786133 287.4699707 C289.05058934 295.61955416 282.40378792 302.53433343 276.66333008 309.2121582 C276.11700928 309.85072754 275.57068848 310.48929687 275.0078125 311.1472168 C272.01266271 314.58260216 268.9990892 317.50986253 265.35083008 320.2746582 C264.26801758 321.3884082 264.26801758 321.3884082 263.16333008 322.5246582 C245.00992099 340.2746582 245.00992099 340.2746582 238.35083008 340.2746582 C238.35083008 340.9346582 238.35083008 341.5946582 238.35083008 342.2746582 C237.68567383 342.51829102 237.02051758 342.76192383 236.33520508 343.01293945 C233.34575259 344.27680484 230.57304737 345.73643283 227.73120117 347.29541016 C214.86756197 354.34048599 201.88846105 359.9738683 187.62036133 363.45043945 C184.40167874 364.20863656 184.40167874 364.20863656 181.554533 365.26027513 C175.80587118 367.08046426 169.82217305 367.62449418 163.85522461 368.37127686 C163.14903433 368.46023475 162.44284405 368.54919264 161.71525407 368.64084622 C146.5598522 370.51169086 131.54569677 370.81608688 116.28051758 370.72875977 C113.43839098 370.72537389 110.59627718 370.72809865 107.75415039 370.73052979 C101.71304067 370.73259689 95.67210774 370.72037143 89.63104248 370.69757843 C80.89740734 370.66464833 72.16385504 370.65461029 63.43016458 370.64962646 C49.25002582 370.64093689 35.06998069 370.61449643 20.88989258 370.57641602 C7.13989724 370.53952971 -6.6100724 370.51130006 -20.36010742 370.49438477 C-21.63787878 370.49280842 -21.63787878 370.49280842 -22.94146371 370.49120024 C-27.21621577 370.48597895 -31.49096801 370.48092439 -35.76572037 370.47595263 C-71.06027019 370.43468865 -106.35471132 370.36441669 -141.64916992 370.2746582 C-141.69439911 365.87895323 -141.55621687 362.17491658 -140.34057617 357.9465332 C-138.40949898 350.65765228 -137.18170797 343.30225538 -135.96923828 335.86743164 C-135.58936762 333.5411784 -135.20092789 331.21647887 -134.8112793 328.8918457 C-133.36383015 320.16570939 -132.12894943 311.45287534 -131.17871094 302.65795898 C-130.32018604 297.1727409 -128.61036794 292.23585622 -124.64916992 288.2746582 C-121.98638143 288.07355124 -119.4268555 287.99834458 -116.76255798 288.00964355 C-115.9382381 288.00526228 -115.11391821 288.00088101 -114.26461893 287.99636698 C-111.48641692 287.9839886 -108.70840228 287.98585906 -105.93017578 287.98754883 C-103.944506 287.98152807 -101.95883878 287.97460471 -99.97317505 287.96684265 C-95.68811733 287.95192158 -91.40310647 287.94319632 -87.11802483 287.93913269 C-80.3397491 287.93243201 -73.5615736 287.91069056 -66.78334045 287.88659668 C-52.38447375 287.83755446 -37.98558573 287.80530946 -23.58666992 287.7746582 C-8.06718548 287.74158117 7.45225994 287.7055857 22.9716844 287.65052748 C29.70633737 287.62720464 36.44092129 287.61344385 43.17561066 287.60703278 C47.37375342 287.60108192 51.57184051 287.58697398 55.76995468 287.57068825 C57.7125253 287.56482616 59.65510958 287.56233714 61.59768867 287.56352806 C64.25702093 287.56469327 66.91604273 287.55362222 69.57533264 287.53967285 C70.33761533 287.54297183 71.09989802 287.5462708 71.88528019 287.54966974 C77.25498806 287.50343623 82.15618239 286.60014961 87.35083008 285.2746582 C88.33051758 285.04004883 89.31020508 284.80543945 90.31958008 284.5637207 C96.31360092 282.99121523 101.77191503 280.9550308 107.35083008 278.2746582 C107.97086914 278.02458008 108.5909082 277.77450195 109.22973633 277.5168457 C122.86738677 271.65180188 133.3530137 258.92455704 140.35083008 246.2746582 C141.01083008 245.9446582 141.67083008 245.6146582 142.35083008 245.2746582 C150.03499626 228.9040433 151.63401189 205.08678064 146.72583008 187.7746582 C145.64832795 184.90390412 145.64832795 184.90390412 144.35083008 182.2746582 C143.93833008 181.38133789 143.52583008 180.48801758 143.10083008 179.56762695 C138.19835058 170.2779854 129.89374562 164.28702042 120.35083008 160.2746582 C119.54645508 159.92661133 118.74208008 159.57856445 117.91333008 159.2199707 C108.32755027 155.21615414 100.14057086 153.98538462 89.79614258 153.96606445 C87.29744281 153.94085677 84.79874495 153.91545962 82.30004883 153.88989258 C78.4177322 153.86149249 74.53544972 153.83745139 70.65307617 153.81835938 C57.10444596 153.73894901 43.68981061 153.45823713 30.21801758 151.9152832 C29.19483429 151.79814468 28.171651 151.68100616 27.11746216 151.56031799 C12.28797921 149.68796247 -6.23501694 146.89139442 -16.64916992 135.1496582 C-20.81143776 129.16639819 -21.49255815 124.53833933 -20.64916992 117.2746582 C-18.46158087 112.64706598 -15.43004492 109.23542133 -10.64916992 107.2746582 C-6.41747556 106.68869876 -2.21899851 106.74896712 2.04711914 106.78881836 C3.96553116 106.78312332 3.96553116 106.78312332 5.92269897 106.77731323 C9.42363196 106.76764021 12.92405277 106.78290656 16.4249239 106.80321932 C20.10804412 106.8208681 23.7911503 106.81726342 27.4743042 106.8164978 C33.67151361 106.81837024 39.86852711 106.83570952 46.06567383 106.86303711 C53.18527013 106.89432074 60.3046508 106.90503888 67.42431092 106.903566 C75.04890898 106.90220266 82.67342608 106.91617174 90.29799938 106.93445921 C92.4702785 106.93867956 94.64254414 106.94013584 96.81482697 106.94093704 C146.7878891 106.97667533 146.7878891 106.97667533 157.35083008 115.2746582 C159.06710915 116.21523319 160.79748399 117.13037075 162.53833008 118.0246582 C169.6671321 121.85591277 175.69707143 126.50288941 181.35083008 132.2746582 C182.55932617 133.40387695 182.55932617 133.40387695 183.79223633 134.5559082 C186.78446692 137.73543872 189.01336037 141.06413182 191.28833008 144.7746582 C191.72290527 145.48170898 192.15748047 146.18875977 192.60522461 146.91723633 C204.68436757 166.89479915 207.57733406 186.12453493 207.60083008 209.0871582 C207.60216949 209.85934692 207.60350891 210.63153564 207.60488892 211.42712402 C207.59359621 241.49375196 207.59359621 241.49375196 201.35083008 255.2746582 C200.39477215 257.90110423 199.52676822 260.55402084 198.66333008 263.2121582 C198.43838867 263.89600586 198.21344727 264.57985352 197.98168945 265.28442383 C197.43527485 266.94691931 196.89264717 268.61065868 196.35083008 270.2746582 C195.69083008 270.2746582 195.03083008 270.2746582 194.35083008 270.2746582 C194.08399414 271.15766602 193.8171582 272.04067383 193.54223633 272.95043945 C190.08476119 282.59736189 182.91675388 290.57872939 176.35083008 298.2746582 C175.72176758 299.01586914 175.09270508 299.75708008 174.44458008 300.52075195 C173.08733329 302.11167566 171.72042703 303.69435403 170.35083008 305.2746582 C172.87365644 304.6780234 175.39384228 304.07260679 177.91333008 303.4621582 C178.97003906 303.21369141 178.97003906 303.21369141 180.0480957 302.96020508 C184.72450663 301.8180402 188.93108181 300.21604296 193.35083008 298.2746582 C195.31766062 297.67043593 197.29662925 297.10352508 199.28833008 296.5871582 C200.24610352 296.33579102 201.20387695 296.08442383 202.19067383 295.82543945 C202.90352539 295.64368164 203.61637695 295.46192383 204.35083008 295.2746582 C204.35083008 294.6146582 204.35083008 293.9546582 204.35083008 293.2746582 C205.97728822 292.25945765 207.61162532 291.25525327 209.27807617 290.30712891 C235.81592497 275.14481122 250.35108017 248.95156598 258.35083008 220.2746582 C261.45153125 207.85476977 262.53751468 195.67950151 262.53613281 182.91381836 C262.53830468 180.67582749 262.55646582 178.43834255 262.57543945 176.20043945 C262.62414999 164.11128664 261.69275559 152.31092376 258.03833008 140.7121582 C257.82104248 140.00381836 257.60375488 139.29547852 257.37988281 138.56567383 C254.41526119 129.07033799 251.43942878 120.06245342 245.48754883 111.98168945 C244.35083008 110.2746582 244.35083008 110.2746582 244.35083008 108.2746582 C243.36083008 107.9446582 242.37083008 107.6146582 241.35083008 107.2746582 C240.38112669 105.58857864 239.41674308 103.89894254 238.49389648 102.18676758 C236.61176834 99.03836355 234.14548305 96.58135271 231.53833008 94.0246582 C230.97355957 93.46818604 230.40878906 92.91171387 229.8269043 92.33837891 C205.93288163 69.36285424 178.93310227 60.92993305 146.31494141 61.01586914 C144.55882117 61.01315177 142.80270207 61.00958668 141.04658508 61.00524902 C136.32364876 60.99621347 131.60080083 60.99963186 126.87786317 61.00600719 C121.91073529 61.01111095 116.94361442 61.00636391 111.97648621 61.00323486 C103.64235083 60.99960889 95.30825105 61.00435929 86.97412109 61.01391602 C77.36453207 61.02480865 67.75502787 61.02126357 58.14544088 61.0102632 C49.86220955 61.001164 41.57900363 60.99991758 33.29576892 61.00514054 C28.36262446 61.00824441 23.42951978 61.00871319 18.49637794 61.00206757 C13.859539 60.99625588 9.22280868 61.00036039 4.58598137 61.01185608 C2.89298812 61.01448187 1.19998561 61.01377356 -0.49300385 61.00933075 C-20.26947648 60.96224884 -35.7034195 63.55473746 -50.30932617 77.73168945 C-61.33466984 89.71415812 -66.41492782 105.03948586 -65.98510742 121.22387695 C-64.70068946 139.78417191 -57.52628196 156.58890396 -43.64916992 169.2746582 C-39.77344841 172.47149516 -35.78959692 175.43066956 -31.64916992 178.2746582 C-31.03428711 178.70649414 -30.4194043 179.13833008 -29.78588867 179.58325195 C-25.25601281 182.47203135 -20.14419767 183.78466868 -15.02807617 185.24731445 C-11.64916992 186.2746582 -11.64916992 186.2746582 -8.11572266 187.67333984 C11.74884737 195.12760118 32.72729078 194.97797869 53.60150146 194.90667725 C59.59253885 194.88798218 65.58324649 194.89860177 71.57420349 194.93253708 C73.63548157 194.93854835 75.69598555 194.92552912 77.75720215 194.91055298 C86.59795741 194.93620273 96.21747021 195.57529127 103.09692383 201.88012695 C106.38182476 208.15316206 105.54873416 217.76134284 103.77075195 224.46020508 C101.27619114 231.64803663 96.44823543 237.65864375 89.91333008 241.6496582 C79.58591909 246.36040707 70.63271502 246.74893505 59.48364258 246.7434082 C57.72272507 246.7505308 55.96180982 246.75823275 54.20089722 246.76647949 C50.50748269 246.77989834 46.81428161 246.78151009 43.12084961 246.77563477 C39.38939825 246.77096098 35.65880488 246.78452507 31.92749023 246.81665039 C-11.82364497 247.1892558 -53.86784135 241.97268214 -87.32885742 210.5559082 C-88.47741211 209.42668945 -88.47741211 209.42668945 -89.64916992 208.2746582 C-90.37362305 207.5630957 -91.09807617 206.8515332 -91.84448242 206.1184082 C-106.99619157 190.26070544 -117.47222506 170.47177969 -122.64916992 149.2746582 C-122.91028564 148.24687256 -123.17140137 147.21908691 -123.44042969 146.16015625 C-125.51886947 137.39268366 -126.15653828 129.08270945 -126.08666992 120.0871582 C-126.08429321 119.41478119 -126.0819165 118.74240417 -126.07946777 118.0496521 C-126.01702456 106.71134187 -124.84986652 96.15416886 -121.64916992 85.2746582 C-121.36041992 84.21375977 -121.07166992 83.15286133 -120.77416992 82.05981445 C-115.29794739 63.84648506 -105.61814538 49.03027644 -92.64916992 35.2746582 C-91.8628418 34.38907227 -91.07651367 33.50348633 -90.26635742 32.59106445 C-78.53682502 19.94684374 -63.67101289 12.58872502 -47.57641602 6.96508789 C-45.9121184 6.36885864 -44.27176948 5.70654751 -42.63745117 5.0324707 C-29.23849479 -0.4552932 -14.24787498 -0.02301415 0 0 Z " fill="#3C8FFE" transform="translate(239.649169921875,124.725341796875)"/>
<path d="M0 0 C-5.87543635 2.51649597 -10.53895478 3.43774298 -16.89648438 3.39872742 C-18.18693114 3.40869766 -18.18693114 3.40869766 -19.50344753 3.41886932 C-22.36700424 3.43742306 -25.2301403 3.43489918 -28.09375 3.43237305 C-30.1540231 3.44139486 -32.21429083 3.4517231 -34.27455139 3.46325684 C-39.85449245 3.49080361 -45.43433158 3.50010825 -51.01433182 3.50611091 C-56.85065997 3.51550056 -62.68691219 3.54170448 -68.52319336 3.56611633 C-79.56915206 3.60976865 -90.61509601 3.63832346 -101.66111469 3.66143972 C-114.23909741 3.68849813 -126.81700368 3.73240929 -139.39493179 3.77772844 C-165.2632464 3.87055661 -191.13158499 3.94224577 -217 4 C-216.67 3.34 -216.34 2.68 -216 2 C-214.96208848 1.99668985 -213.92417696 1.99337971 -212.85481358 1.98996925 C-187.59068393 1.90894597 -162.3266148 1.81662146 -137.06256962 1.71247292 C-124.84502983 1.66236847 -112.62749667 1.61592524 -100.40991211 1.578125 C-89.76006717 1.54516591 -79.11027406 1.50531296 -68.46048635 1.45720994 C-62.82244085 1.43198399 -57.18442955 1.41019113 -51.54634285 1.39665604 C-46.23665513 1.38380034 -40.92708497 1.36170801 -35.61746216 1.33261681 C-33.67167369 1.32356846 -31.72586631 1.31785722 -29.78005791 1.31578636 C-27.1162248 1.3124444 -24.4527211 1.296915 -21.78895569 1.2784729 C-21.02530876 1.28040763 -20.26166183 1.28234237 -19.47487408 1.28433573 C-14.77395159 1.2359325 -10.58822737 0.57523439 -6.05038828 -0.66994631 C-3.73834274 -1.04211931 -2.21185068 -0.70972694 0 0 Z " fill="#5899EC" transform="translate(331,411)"/>
<path d="M0 0 C1.69743095 -0.00618599 1.69743095 -0.00618599 3.42915344 -0.01249695 C4.67136658 -0.00171112 5.91357971 0.00907471 7.19343567 0.02018738 C8.5008522 0.0197493 9.80826874 0.01931122 11.15530396 0.01885986 C14.74191212 0.01799809 18.32822012 0.03565306 21.91475844 0.05658174 C25.66236464 0.0753183 29.40997749 0.07709659 33.15762329 0.08065796 C40.25494969 0.08998733 47.35213769 0.11461311 54.44940311 0.14470643 C62.52910595 0.17822274 70.60881535 0.19472946 78.68857038 0.20979273 C95.30982073 0.24116195 111.93093183 0.2939397 128.55207825 0.36076355 C128.55207825 0.69076355 128.55207825 1.02076355 128.55207825 1.36076355 C127.8885456 1.36499549 127.22501295 1.36922743 126.54137325 1.37358761 C110.38256819 1.47697432 94.2238079 1.58562393 78.06507778 1.70010281 C70.25078226 1.75533793 62.43648217 1.80880371 54.62214661 1.858078 C47.80973092 1.90103908 40.99734752 1.94734665 34.18498188 1.9976421 C30.57921798 2.02414727 26.97346008 2.04899741 23.36765862 2.06983757 C19.33850738 2.09318732 15.30944603 2.12400956 11.28034973 2.15544128 C9.49470612 2.16407448 9.49470612 2.16407448 7.67298889 2.17288208 C2.19944049 2.22143793 -3.05648576 2.38958658 -8.44792175 3.36076355 C-5.89529354 0.10818014 -4.04007876 -0.01133792 0 0 Z " fill="#62A2F4" transform="translate(234.4479217529297,231.6392364501953)"/>
<path d="M0 0 C8.74529694 15.61660167 7.28659037 37.67480216 7.25 55.0625 C7.24913391 55.84571625 7.24826782 56.6289325 7.24737549 57.43588257 C7.22565353 65.03228909 7.04451405 72.46809079 6 80 C5.67 80 5.34 80 5 80 C4.98969254 79.43560715 4.97938507 78.87121429 4.96876526 78.28971863 C4.85982733 72.36760893 4.74531109 66.44562501 4.62768555 60.52368164 C4.58461384 58.31928156 4.54292179 56.11485405 4.50268555 53.91040039 C4.44430357 50.72533938 4.38081209 47.54041299 4.31640625 44.35546875 C4.29969376 43.38417526 4.28298126 42.41288177 4.26576233 41.41215515 C4.14424609 35.68432573 3.79215556 30.02620119 3.21716309 24.32556152 C2.96698362 21.64643332 2.89851496 19.00246768 2.9375 16.3125 C2.94652344 15.48363281 2.95554687 14.65476562 2.96484375 13.80078125 C2.98224609 12.90939453 2.98224609 12.90939453 3 12 C2.34 12 1.68 12 1 12 C0.03929566 9.11788698 -0.10581883 7.30149956 -0.0625 4.3125 C-0.05347656 3.50425781 -0.04445313 2.69601563 -0.03515625 1.86328125 C-0.02355469 1.24839844 -0.01195312 0.63351563 0 0 Z " fill="#609FF5" transform="translate(555,252)"/>
<path d="M0 0 C2.29199177 0.14063135 4.58359186 0.28765943 6.875 0.4375 C8.15117187 0.51871094 9.42734375 0.59992188 10.7421875 0.68359375 C14 1 14 1 16 2 C17.98667675 2.14264074 19.97771546 2.22636518 21.96875 2.28125 C23.78632813 2.33732422 23.78632813 2.33732422 25.640625 2.39453125 C26.91421875 2.42933594 28.1878125 2.46414063 29.5 2.5 C43.53887086 2.89320489 43.53887086 2.89320489 48.9609375 3.49609375 C55.66141201 4.23951815 62.39061432 4.35873139 69.125 4.5625 C70.47657242 4.60581131 71.82813506 4.64942902 73.1796875 4.69335938 C76.45304194 4.79857434 79.72646125 4.90071479 83 5 C83 5.33 83 5.66 83 6 C21.38073045 6.73811902 21.38073045 6.73811902 0 1 C0 0.67 0 0.34 0 0 Z " fill="#60A0F5" transform="translate(250,272)"/>
<path d="M0 0 C1.8357297 3.14188692 2.25632927 5.44829914 2.265625 9.0703125 C2.26820313 10.05 2.27078125 11.0296875 2.2734375 12.0390625 C2.26570313 13.05742187 2.25796875 14.07578125 2.25 15.125 C2.25773437 16.12015625 2.26546875 17.1153125 2.2734375 18.140625 C2.23077823 34.47912366 2.23077823 34.47912366 -1.57324219 38.77783203 C-2.04407227 39.18114746 -2.51490234 39.58446289 -3 40 C-2.10285255 32.56649257 -2.10285255 32.56649257 -1.5 29.24609375 C-1.00695217 26.04513482 -0.79570565 22.9617916 -0.68359375 19.7265625 C-0.64169922 18.57285156 -0.59980469 17.41914063 -0.55664062 16.23046875 C-0.49766602 14.44576172 -0.49766602 14.44576172 -0.4375 12.625 C-0.39431641 11.41199219 -0.35113281 10.19898438 -0.30664062 8.94921875 C-0.20094487 5.96624968 -0.09884679 2.98320258 0 0 Z " fill="#5A9AF1" transform="translate(389,320)"/>
<path d="M0 0 C0.33 0 0.66 0 1 0 C0.90234375 2.01822917 0.8046875 4.03645833 0.70703125 6.0546875 C0.80371094 6.69664062 0.90039062 7.33859375 1 8 C1.99 8.66 2.98 9.32 4 10 C4 10.66 4 11.32 4 12 C6.64 12.33 9.28 12.66 12 13 C12 13.33 12 13.66 12 14 C7.38 14.33 2.76 14.66 -2 15 C-2 8.97206487 -1.55700564 5.5468326 0 0 Z " fill="#529AF7" transform="translate(100,480)"/>
<path d="M0 0 C0.66796875 1.69140625 0.66796875 1.69140625 1 4 C-0.07421875 6.40234375 -0.07421875 6.40234375 -1.6875 8.9375 C-2.24050781 9.81019531 -2.79351562 10.68289063 -3.36328125 11.58203125 C-5.11638644 14.17194083 -6.95109081 16.63587401 -9 19 C-9.99 18.67 -10.98 18.34 -12 18 C-11.38511719 17.11957031 -10.77023437 16.23914063 -10.13671875 15.33203125 C-9.32022829 14.15891277 -8.50382675 12.9857324 -7.6875 11.8125 C-7.28337891 11.23435547 -6.87925781 10.65621094 -6.46289062 10.06054688 C-4.17922307 6.77429357 -2.01442146 3.46167572 0 0 Z " fill="#589AF2" transform="translate(486,376)"/>
<path d="M0 0 C0.6015625 1.87109375 0.6015625 1.87109375 1 4 C-0.92881713 6.44811405 -2.80122534 7.88570457 -5.5 9.4375 C-8.16863119 10.90066987 -8.16863119 10.90066987 -10 13.625 C-12 16 -12 16 -14.75 16.8125 C-15.4925 16.874375 -16.235 16.93625 -17 17 C-11.33333333 11.33333333 -5.66666667 5.66666667 0 0 Z " fill="#65A2F7" transform="translate(473,395)"/>
<path d="M0 0 C-6.50652302 2.61736323 -12.08167409 3.39871196 -19.0625 3.1875 C-19.92810547 3.17396484 -20.79371094 3.16042969 -21.68554688 3.14648438 C-23.79064174 3.1115933 -25.89540974 3.05780665 -28 3 C-28 2.67 -28 2.34 -28 2 C-24.08488185 1.46705432 -20.16774466 0.95075145 -16.25 0.4375 C-15.13882812 0.28603516 -14.02765625 0.13457031 -12.8828125 -0.02148438 C-11.81289063 -0.16005859 -10.74296875 -0.29863281 -9.640625 -0.44140625 C-8.65610352 -0.57232666 -7.67158203 -0.70324707 -6.65722656 -0.83813477 C-4.14200979 -0.99134946 -2.37853466 -0.77228356 0 0 Z " fill="#AFD6FD" transform="translate(414,492)"/>
<path d="M0 0 C-1.41013012 3.40781445 -2.96580302 4.94745499 -6 7 C-6.99 7.86625 -6.99 7.86625 -8 8.75 C-10 10 -10 10 -12.125 9.578125 C-12.74375 9.38734375 -13.3625 9.1965625 -14 9 C-3.89320388 0 -3.89320388 0 0 0 Z " fill="#5A9CF5" transform="translate(168,144)"/>
<path d="M0 0 C-6.24952436 2.75586664 -11.21283308 3.39080223 -18 3.1875 C-18.87011719 3.17396484 -19.74023438 3.16042969 -20.63671875 3.14648438 C-22.75808627 3.11151678 -24.87912974 3.0577253 -27 3 C-27 2.67 -27 2.34 -27 2 C-25.64068359 1.92652344 -25.64068359 1.92652344 -24.25390625 1.8515625 C-15.99453034 1.36397752 -15.99453034 1.36397752 -7.875 -0.125 C-4.29860777 -0.93257244 -3.26580756 -1.03054372 0 0 Z " fill="#63A0F3" transform="translate(331,411)"/>
<path d="M0 0 C0.33 0.66 0.66 1.32 1 2 C0.08777046 4.73668863 -0.89281438 7.34275451 -2 10 C-2.32613281 10.79921875 -2.65226563 11.5984375 -2.98828125 12.421875 C-4.60630965 16.2451699 -5.87185224 19.18288966 -9 22 C-8.52227279 15.94878865 -5.78441119 11.2622817 -3 6 C-2.39202158 4.79358007 -1.78707228 3.58561963 -1.1875 2.375 C-0.795625 1.59125 -0.40375 0.8075 0 0 Z " fill="#5697F2" transform="translate(548,378)"/>
<path d="M0 0 C0.33 0 0.66 0 1 0 C1.07347656 1.17755859 1.07347656 1.17755859 1.1484375 2.37890625 C1.5620036 8.19022303 2.11782148 13.478943 4 19 C0.92325781 16.94883854 0.23111241 16.3257539 -1 13 C-1.23046875 10.2734375 -1.23046875 10.2734375 -1.1875 7.375 C-1.18105469 6.41335937 -1.17460937 5.45171875 -1.16796875 4.4609375 C-1 2 -1 2 0 0 Z " fill="#5E9EF1" transform="translate(220,240)"/>
<path d="M0 0 C0.6875 1.8125 0.6875 1.8125 1 4 C-0.4375 5.75 -0.4375 5.75 -2 7 C-0.35 7 1.3 7 3 7 C-0.4019487 9.09350689 -3.05272412 9.17942163 -7 9 C-5.44499019 5.18315774 -2.96404505 2.80804268 0 0 Z " fill="#B5DBFE" transform="translate(417,421)"/>
<path d="M0 0 C4.01640325 7.81434105 4.50360206 15.31303606 5 24 C3 22 3 22 2.8046875 19.6171875 C2.83949219 18.25980469 2.83949219 18.25980469 2.875 16.875 C2.89304687 15.96492188 2.91109375 15.05484375 2.9296875 14.1171875 C2.95289063 13.41851562 2.97609375 12.71984375 3 12 C2.34 12 1.68 12 1 12 C0.03929566 9.11788698 -0.10581883 7.30149956 -0.0625 4.3125 C-0.05347656 3.50425781 -0.04445313 2.69601563 -0.03515625 1.86328125 C-0.02355469 1.24839844 -0.01195312 0.63351563 0 0 Z " fill="#6EAAF6" transform="translate(555,252)"/>
<path d="M0 0 C0.66 0 1.32 0 2 0 C1.68981396 2.5627992 1.37693109 5.1252211 1.0625 7.6875 C0.97548828 8.40873047 0.88847656 9.12996094 0.79882812 9.87304688 C0.33686195 13.62010584 -0.19167679 17.30792911 -1 21 C-1.33 21 -1.66 21 -2 21 C-2.28307925 13.75002578 -1.50974035 7.09038772 0 0 Z " fill="#B5DCFE" transform="translate(101,464)"/>
<path d="M0 0 C0 2 0 2 -2.4375 4.5 C-3.283125 5.325 -4.12875 6.15 -5 7 C-6.21693876 9.43387753 -6.31959896 11.41838846 -6.5625 14.125 C-6.64628906 15.03507813 -6.73007813 15.94515625 -6.81640625 16.8828125 C-6.87699219 17.58148438 -6.93757812 18.28015625 -7 19 C-7.33 19 -7.66 19 -8 19 C-8.56905158 7.15529673 -8.56905158 7.15529673 -5 2 C-2 0 -2 0 0 0 Z " fill="#C9EAFF" transform="translate(226,233)"/>
<path d="M0 0 C0 0.66 0 1.32 0 2 C-2.09595521 4.04763347 -4.39870926 5.65635809 -7 7 C-9.9375 6.8125 -9.9375 6.8125 -12 6 C-8.40461874 2.91824463 -4.933456 0 0 0 Z " fill="#B4DBFD" transform="translate(470,471)"/>
<path d="M0 0 C-1.45399296 3.83325416 -3.3080115 5.28279605 -7 7 C-9.8125 7.1875 -9.8125 7.1875 -12 7 C-3.55172414 0 -3.55172414 0 0 0 Z " fill="#60A0F5" transform="translate(456,412)"/>
<path d="M0 0 C0.66 0.33 1.32 0.66 2 1 C-0.46074699 5.19774486 -3.4621436 6.4873812 -8 8 C-10.22265625 7.57421875 -10.22265625 7.57421875 -12 7 C-11.21753906 6.57847656 -10.43507813 6.15695312 -9.62890625 5.72265625 C-8.61699219 5.17480469 -7.60507812 4.62695312 -6.5625 4.0625 C-5.55316406 3.51722656 -4.54382813 2.97195313 -3.50390625 2.41015625 C-1.13329507 1.22300532 -1.13329507 1.22300532 0 0 Z " fill="#5FA1F1" transform="translate(356,398)"/>
<path d="M0 0 C0.33 0.66 0.66 1.32 1 2 C-1.82506863 4.9297008 -4.78796065 7.50174717 -8 10 C-9.32 9.34 -10.64 8.68 -12 8 C-10.700625 7.4121875 -10.700625 7.4121875 -9.375 6.8125 C-5.74128495 4.86106043 -3.08299117 2.71596841 0 0 Z " fill="#B8DAFE" transform="translate(336,360)"/>
<path d="M0 0 C0.66 0.33 1.32 0.66 2 1 C1.67 1.99 1.34 2.98 1 4 C-4.75 3.125 -4.75 3.125 -7 2 C-7 1.34 -7 0.68 -7 0 C-4.30919898 -1.34540051 -2.86443593 -0.71610898 0 0 Z " fill="#E1F3FA" transform="translate(170,348)"/>
<path d="M0 0 C3.27742098 3.10026309 5.93104837 5.97098894 8 10 C8 10.66 8 11.32 8 12 C7.01 12 6.02 12 5 12 C5 10.35 5 8.7 5 7 C4.01 7 3.02 7 2 7 C1.34 4.69 0.68 2.38 0 0 Z " fill="#5EA0F3" transform="translate(528,196)"/>
<path d="M0 0 C4.95 0 9.9 0 15 0 C15 0.66 15 1.32 15 2 C15.66 2.33 16.32 2.66 17 3 C11.39 2.34 5.78 1.68 0 1 C0 0.67 0 0.34 0 0 Z " fill="#B3D8FE" transform="translate(416,126)"/>
<path d="M0 0 C0.33 0 0.66 0 1 0 C1 3.96 1 7.92 1 12 C0.01 12.33 -0.98 12.66 -2 13 C-1.85769192 11.58297487 -1.71099254 10.1663904 -1.5625 8.75 C-1.48128906 7.96109375 -1.40007812 7.1721875 -1.31640625 6.359375 C-1.02365007 4.17635361 -0.57935581 2.1226818 0 0 Z " fill="#5F9DF5" transform="translate(500,336)"/>
<path d="M0 0 C0.66 0 1.32 0 2 0 C2 0.66 2 1.32 2 2 C3.32 2 4.64 2 6 2 C6.144375 2.7425 6.28875 3.485 6.4375 4.25 C6.90187492 6.52027739 7.41863569 8.75759479 8 11 C4.32966073 7.72291137 2.30718811 4.28477792 0 0 Z " fill="#5496F3" transform="translate(135,313)"/>
<path d="M0 0 C0.99 0 1.98 0 3 0 C2.55123384 1.64846769 2.09069512 3.29373455 1.625 4.9375 C1.36976563 5.85402344 1.11453125 6.77054687 0.8515625 7.71484375 C0 10 0 10 -2 11 C-1.34 7.37 -0.68 3.74 0 0 Z " fill="#A4CEFC" transform="translate(383,360)"/>
<path d="M0 0 C1.58468677 0.45363171 3.16769924 0.91311452 4.75 1.375 C5.63171875 1.63023437 6.5134375 1.88546875 7.421875 2.1484375 C9.76080572 2.9209934 11.83442562 3.83625676 14 5 C12.04081032 4.94008594 10.08248471 4.85132862 8.125 4.75 C7.03445312 4.70359375 5.94390625 4.6571875 4.8203125 4.609375 C2 4 2 4 0.6171875 1.953125 C0.41351563 1.30859375 0.20984375 0.6640625 0 0 Z " fill="#5498F3" transform="translate(226,311)"/>
<path d="M0 0 C1.6260287 0.06000106 3.25101549 0.1487885 4.875 0.25 C6.23238281 0.31960938 6.23238281 0.31960938 7.6171875 0.390625 C10 1 10 1 11.3203125 3.046875 C11.54460937 3.69140625 11.76890625 4.3359375 12 5 C10.37276701 4.54965877 8.74826336 4.08944646 7.125 3.625 C5.76761719 3.24214844 5.76761719 3.24214844 4.3828125 2.8515625 C2 2 2 2 0 0 Z " fill="#6EA9F6" transform="translate(354,282)"/>
<path d="M0 0 C1.8141927 0.28094582 3.62635001 0.57506433 5.4375 0.875 C6.95150391 1.11863281 6.95150391 1.11863281 8.49609375 1.3671875 C9.32238281 1.57601562 10.14867187 1.78484375 11 2 C11.33 2.66 11.66 3.32 12 4 C7.12335991 4.34833144 4.22949995 3.41685712 0 1 C0 0.67 0 0.34 0 0 Z " fill="#67A6F5" transform="translate(382,235)"/>
<path d="M0 0 C0.6875 1.6875 0.6875 1.6875 1 4 C-0.25 6.6875 -0.25 6.6875 -2 9 C-2.99 9.33 -3.98 9.66 -5 10 C-3.66511872 6.40608886 -2.03977277 3.24509304 0 0 Z " fill="#69A4F4" transform="translate(486,376)"/>
<path d="M0 0 C0.33 0 0.66 0 1 0 C1.08114106 1.77007714 1.13925505 3.54122098 1.1875 5.3125 C1.23970703 6.79169922 1.23970703 6.79169922 1.29296875 8.30078125 C1 11 1 11 -0.51171875 12.85546875 C-1.00285156 13.23316406 -1.49398438 13.61085938 -2 14 C-1.43393721 9.30976546 -0.81462495 4.65499974 0 0 Z " fill="#6FAAF8" transform="translate(388,346)"/>
<path d="M0 0 C0.33 0.66 0.66 1.32 1 2 C0.0625 4.125 0.0625 4.125 -1 6 C-1.66 6 -2.32 6 -3 6 C-3.33 7.32 -3.66 8.64 -4 10 C-4.66 10 -5.32 10 -6 10 C-4.6302836 6.00499382 -2.74277578 3.19990508 0 0 Z " fill="#6AA4F5" transform="translate(138,170)"/>
<path d="M0 0 C0.33 0.66 0.66 1.32 1 2 C0.67 2.66 0.34 3.32 0 4 C-0.66 4 -1.32 4 -2 4 C-2 4.66 -2 5.32 -2 6 C-4.5 7.625 -4.5 7.625 -7 9 C-5.44499019 5.18315774 -2.96404505 2.80804268 0 0 Z " fill="#B6DCFE" transform="translate(531,416)"/>
<path d="M0 0 C2.66735273 2.48952921 4.55746343 4.63408134 6 8 C3 8 3 8 1.3125 6.8125 C-0.40364695 4.44258278 -0.23187108 2.85974334 0 0 Z " fill="#5599F1" transform="translate(426,264)"/>
<path d="M0 0 C0.66 0.33 1.32 0.66 2 1 C-1.32307692 5.8 -1.32307692 5.8 -4.75 6.8125 C-5.4925 6.874375 -6.235 6.93625 -7 7 C-4.66666667 4.66666667 -2.33333333 2.33333333 0 0 Z " fill="#5999F2" transform="translate(463,405)"/>
<path d="M0 0 C0.66 0 1.32 0 2 0 C0.25 7.625 0.25 7.625 -2 11 C-2.19622241 6.78121808 -1.80230168 3.82989106 0 0 Z " fill="#5C9EF4" transform="translate(437,384)"/>
<path d="M0 0 C0.33 1.32 0.66 2.64 1 4 C0.34 4 -0.32 4 -1 4 C-1.33 4.99 -1.66 5.98 -2 7 C-2.99 6.67 -3.98 6.34 -5 6 C-3.35 4.02 -1.7 2.04 0 0 Z " fill="#629FF2" transform="translate(374,381)"/>
<path d="M0 0 C7.57142857 1.85714286 7.57142857 1.85714286 10 5 C6.28111761 4.49287967 3.26545761 3.88391785 0 2 C0 1.34 0 0.68 0 0 Z " fill="#5295EF" transform="translate(393,239)"/>
<path d="M0 0 C0.33 0.66 0.66 1.32 1 2 C0.34 2 -0.32 2 -1 2 C-1.12375 2.78375 -1.2475 3.5675 -1.375 4.375 C-2 7 -2 7 -4 9 C-3.6875 5.625 -3.6875 5.625 -3 2 C-2.01 1.34 -1.02 0.68 0 0 Z " fill="#DEF2F9" transform="translate(183,214)"/>
<path d="M0 0 C0.6875 1.6875 0.6875 1.6875 1 4 C-0.3125 6.75 -0.3125 6.75 -2 9 C-2.66 9 -3.32 9 -4 9 C-2.94124926 5.59687262 -1.99097846 2.98646769 0 0 Z " fill="#61A2F4" transform="translate(131,180)"/>
<path d="M0 0 C0.66 0.33 1.32 0.66 2 1 C1.01 2.485 1.01 2.485 0 4 C-3.125 4.1875 -3.125 4.1875 -6 4 C-3.94766315 1.7522025 -2.99332739 0.9977758 0 0 Z " fill="#BCDEFD" transform="translate(208,189)"/>
</svg>
